<?xml version="1.0" standalone="no"?>
<!DOCTYPE svg PUBLIC "-//W3C//DTD SVG 20010904//EN"
 "http://www.w3.org/TR/2001/REC-SVG-20010904/DTD/svg10.dtd">
<svg version="1.0" xmlns="http://www.w3.org/2000/svg"
 width="16.000000pt" height="16.000000pt" viewBox="0 0 16.000000 16.000000"
 preserveAspectRatio="xMidYMid meet">

<g transform="translate(0.000000,16.000000) scale(0.100000,-0.100000)"
fill="#000000" stroke="none">
<path d="M4 147 c-3 -8 -4 -43 -2 -78 l3 -64 75 0 75 0 0 75 0 75 -73 3 c-55
2 -74 -1 -78 -11z m146 -14 c0 -9 -20 -13 -68 -13 -49 0 -69 4 -69 13 0 8 20
12 69 12 48 0 68 -4 68 -12z m0 -73 l0 -50 -70 0 c-71 0 -80 5 -57 29 10 11
10 13 0 7 -9 -5 -13 3 -13 28 l0 36 70 0 70 0 0 -50z"/>
<path d="M75 50 c-10 -11 -16 -22 -14 -24 2 -2 12 7 22 20 22 29 17 32 -8 4z"/>
</g>
</svg>
