<?xml version="1.0" standalone="no"?>
<!DOCTYPE svg PUBLIC "-//W3C//DTD SVG 20010904//EN"
 "http://www.w3.org/TR/2001/REC-SVG-20010904/DTD/svg10.dtd">
<svg version="1.0" xmlns="http://www.w3.org/2000/svg"
 width="16.000000pt" height="16.000000pt" viewBox="0 0 16.000000 16.000000"
 preserveAspectRatio="xMidYMid meet">

<g transform="translate(0.000000,16.000000) scale(0.100000,-0.100000)"
fill="#000000" stroke="none">
<path d="M7 143 c-12 -11 -8 -118 5 -131 16 -16 120 -16 136 0 19 19 15 102
-6 121 -19 17 -121 25 -135 10z m46 -23 c7 -27 47 -27 54 0 11 42 28 12 29
-51 1 -35 0 -52 -3 -36 -4 25 -8 27 -53 27 -45 0 -49 -2 -53 -27 -2 -16 -5 2
-6 40 -1 51 2 67 13 67 7 0 16 -9 19 -20z m47 5 c0 -8 -9 -15 -20 -15 -11 0
-20 7 -20 15 0 8 9 15 20 15 11 0 20 -7 20 -15z m20 -95 c0 -17 -7 -20 -40
-20 -33 0 -40 3 -40 20 0 17 7 20 40 20 33 0 40 -3 40 -20z"/>
</g>
</svg>
